<mxfile host="app.diagrams.net" modified="2021-03-19T14:49:25.863Z" agent="5.0 (Windows NT 10.0; Win64; x64) AppleWebKit/537.36 (KHTML, like Gecko) Chrome/89.0.4389.90 Safari/537.36 Edg/89.0.774.54" etag="hNla6CKLZDaMBeImFC9x" version="14.4.8" type="github">
  <diagram id="0SSeoz64cKMHNlkC2FtM" name="Page-1">
    <mxGraphModel dx="978" dy="546" grid="1" gridSize="10" guides="1" tooltips="1" connect="1" arrows="1" fold="1" page="1" pageScale="1" pageWidth="509" pageHeight="280" math="0" shadow="0">
      <root>
        <mxCell id="0" />
        <mxCell id="1" parent="0" />
        <mxCell id="gsCGEql7HApRzmA8ZIkv-4" value="&lt;b&gt;Primary Model&lt;/b&gt;" style="rounded=1;whiteSpace=wrap;html=1;fillColor=#dae8fc;strokeColor=#6c8ebf;" vertex="1" parent="1">
          <mxGeometry x="110" y="110" width="90" height="40" as="geometry" />
        </mxCell>
        <mxCell id="gsCGEql7HApRzmA8ZIkv-8" value="" style="endArrow=classic;html=1;" edge="1" parent="1">
          <mxGeometry width="50" height="50" relative="1" as="geometry">
            <mxPoint x="160" y="150" as="sourcePoint" />
            <mxPoint x="160" y="184" as="targetPoint" />
          </mxGeometry>
        </mxCell>
        <mxCell id="gsCGEql7HApRzmA8ZIkv-10" value="&lt;b&gt;Secondary Model&lt;/b&gt;" style="rounded=1;whiteSpace=wrap;html=1;fillColor=#dae8fc;strokeColor=#6c8ebf;" vertex="1" parent="1">
          <mxGeometry x="315" y="110" width="90" height="37" as="geometry" />
        </mxCell>
        <mxCell id="gsCGEql7HApRzmA8ZIkv-13" value="" style="shape=cylinder3;whiteSpace=wrap;html=1;boundedLbl=1;backgroundOutline=1;size=15;fillColor=#f8cecc;strokeColor=#b85450;" vertex="1" parent="1">
          <mxGeometry x="225" y="25" width="80" height="70" as="geometry" />
        </mxCell>
        <mxCell id="gsCGEql7HApRzmA8ZIkv-14" value="Meta Labels*" style="text;html=1;strokeColor=none;fillColor=none;align=center;verticalAlign=middle;whiteSpace=wrap;rounded=0;" vertex="1" parent="1">
          <mxGeometry x="225" y="60" width="80" height="20" as="geometry" />
        </mxCell>
        <mxCell id="gsCGEql7HApRzmA8ZIkv-17" value="" style="endArrow=classic;html=1;strokeColor=#616161;entryX=0.5;entryY=0;entryDx=0;entryDy=0;" edge="1" parent="1" target="gsCGEql7HApRzmA8ZIkv-10">
          <mxGeometry width="50" height="50" relative="1" as="geometry">
            <mxPoint x="310" y="70" as="sourcePoint" />
            <mxPoint x="360" y="100" as="targetPoint" />
            <Array as="points">
              <mxPoint x="360" y="70" />
            </Array>
          </mxGeometry>
        </mxCell>
        <mxCell id="gsCGEql7HApRzmA8ZIkv-18" value="Features**" style="shape=cylinder3;whiteSpace=wrap;html=1;boundedLbl=1;backgroundOutline=1;size=15;fillColor=#d5e8d4;strokeColor=#82b366;" vertex="1" parent="1">
          <mxGeometry x="420" y="20" width="60" height="80" as="geometry" />
        </mxCell>
        <mxCell id="gsCGEql7HApRzmA8ZIkv-20" value="" style="endArrow=classic;html=1;strokeColor=#616161;exitX=0;exitY=1;exitDx=0;exitDy=-15;exitPerimeter=0;" edge="1" parent="1" source="gsCGEql7HApRzmA8ZIkv-18">
          <mxGeometry width="50" height="50" relative="1" as="geometry">
            <mxPoint x="370" y="70" as="sourcePoint" />
            <mxPoint x="370" y="110" as="targetPoint" />
            <Array as="points">
              <mxPoint x="370" y="85" />
            </Array>
          </mxGeometry>
        </mxCell>
        <mxCell id="gsCGEql7HApRzmA8ZIkv-21" value="" style="endArrow=classic;html=1;" edge="1" parent="1">
          <mxGeometry width="50" height="50" relative="1" as="geometry">
            <mxPoint x="359.5" y="147" as="sourcePoint" />
            <mxPoint x="359.5" y="184" as="targetPoint" />
          </mxGeometry>
        </mxCell>
        <mxCell id="gsCGEql7HApRzmA8ZIkv-22" value="Directional Trading Signal&lt;br&gt;given a unseen feature vector" style="text;html=1;align=center;verticalAlign=middle;resizable=0;points=[];autosize=1;" vertex="1" parent="1">
          <mxGeometry x="70" y="187" width="170" height="30" as="geometry" />
        </mxCell>
        <mxCell id="gsCGEql7HApRzmA8ZIkv-23" value="Probability of Signalbeing correct, &lt;br&gt;conditioned on unseen feature vector**" style="text;html=1;align=center;verticalAlign=middle;resizable=0;points=[];autosize=1;" vertex="1" parent="1">
          <mxGeometry x="255" y="187" width="220" height="30" as="geometry" />
        </mxCell>
        <mxCell id="gsCGEql7HApRzmA8ZIkv-24" value="&lt;div style=&quot;text-align: left&quot;&gt;&lt;b style=&quot;font-size: 9px&quot;&gt;*&amp;nbsp; &amp;nbsp;generated by past primary signals&lt;/b&gt;&lt;/div&gt;&lt;font style=&quot;font-size: 9px&quot;&gt;&lt;div style=&quot;text-align: left&quot;&gt;&lt;b&gt;** different set than the one used&amp;nbsp;&lt;/b&gt;&lt;/div&gt;&lt;b&gt;&lt;div style=&quot;text-align: left&quot;&gt;&lt;b&gt;&amp;nbsp; &amp;nbsp; for primary model&lt;/b&gt;&lt;/div&gt;&lt;/b&gt;&lt;/font&gt;" style="text;html=1;align=center;verticalAlign=middle;resizable=0;points=[];autosize=1;" vertex="1" parent="1">
          <mxGeometry x="20" y="25" width="170" height="50" as="geometry" />
        </mxCell>
      </root>
    </mxGraphModel>
  </diagram>
</mxfile>
